PathFileType	4	(X/Y/Z)	C:/Users/opensim2020/Desktop/walking_exp_matlab/subject06_walking13_straight_03_cyclic.trc	
DataRate	CameraRate	NumFrames	NumMarkers	Units	OrigDataRate	OrigDataStartFrame	OrigNumFrames	
100.00	100.00	4	50	mm	100.00	2291	111	
Frame#	Time	LFHD			RFHD			LBHD			RBHD			C7			T10			CLAV			STRN			RBAK			LSHO			LUPA			LELB			LFRM			LWRA			LWRB			LFIN			RSHO			RUPA			RELB			RFRM			RWRA			RWRB			RFIN			LASI			RASI			LPSI			RPSI			LTHI			LKNE			LTIB			LANK			LHEE			LTOE			RTHI			RKNE			RTIB			RANK			RHEE			RTOE			*39			*40			*41			*42			*43			*44			*45			*46			*47			*48			*49			
		X1	Y1	Z1	X2	Y2	Z2	X3	Y3	Z3	X4	Y4	Z4	X5	Y5	Z5	X6	Y6	Z6	X7	Y7	Z7	X8	Y8	Z8	X9	Y9	Z9	X10	Y10	Z10	X11	Y11	Z11	X12	Y12	Z12	X13	Y13	Z13	X14	Y14	Z14	X15	Y15	Z15	X16	Y16	Z16	X17	Y17	Z17	X18	Y18	Z18	X19	Y19	Z19	X20	Y20	Z20	X21	Y21	Z21	X22	Y22	Z22	X23	Y23	Z23	X24	Y24	Z24	X25	Y25	Z25	X26	Y26	Z26	X27	Y27	Z27	X28	Y28	Z28	X29	Y29	Z29	X30	Y30	Z30	X31	Y31	Z31	X32	Y32	Z32	X33	Y33	Z33	X34	Y34	Z34	X35	Y35	Z35	X36	Y36	Z36	X37	Y37	Z37	X38	Y38	Z38	X39	Y39	Z39	X40	Y40	Z40	X41	Y41	Z41	X42	Y42	Z42	X43	Y43	Z43	X44	Y44	Z44	X45	Y45	Z45	X46	Y46	Z46	X47	Y47	Z47	X48	Y48	Z48	X49	Y49	Z49	X50	Y50	Z50	

84	0.830	-1070.17346	376.97659	1658.05298	-940.11237	359.40802	1644.12476	-1089.91382	241.31541	1616.42920	-961.82910	225.41592	1607.08655	-1038.39868	223.38184	1450.91980	-1034.51807	187.98712	1120.62952	-1026.42883	331.57681	1372.26147	-1033.95313	372.89865	1198.72388	-971.88654	140.33940	1277.46741	-1192.54517	293.66196	1409.12488	-1271.99475	324.49307	1211.48730	-1291.26953	343.82324	1101.14771	-1319.45935	418.82983	972.20795	-1282.98120	520.02399	889.53955	-1318.24365	465.35291	861.95813	-1326.54248	535.45251	806.81500	-871.11096	266.37140	1399.92810	-792.15741	215.87811	1200.64258	-779.49115	222.65353	1078.47656	-760.17322	229.90863	958.43066	-783.44617	283.35599	814.45593	-748.54980	225.90996	820.45520	-742.95563	256.39749	741.60284	-1139.09009	369.22684	964.12927	-918.42682	366.66470	969.92035	-1112.10767	210.62021	988.49438	-943.66479	214.76175	986.87061	-1190.56055	292.55835	646.88489	-1165.28223	278.80444	483.18900	-1149.86816	207.72231	234.97484	-1102.67529	177.00066	65.89434	-1057.54578	134.20943	54.60456	-1099.68665	319.96878	35.07952	-855.21411	408.26950	651.43201	-875.19482	462.76416	537.72064	-882.27570	371.05493	291.58060	-927.51373	306.29544	118.37153	-976.61963	265.57800	103.33521	-915.22021	439.71765	45.21992	-1023.21210	273.97388	1704.33557																														 
85	0.840	-1069.44653	387.76001	1657.17102	-939.44519	370.02017	1643.00671	-1089.47046	252.07375	1615.61414	-961.48212	236.03693	1605.96460	-1038.33936	234.17551	1450.06360	-1034.66968	198.39854	1119.87000	-1026.34143	342.19968	1371.27783	-1034.19763	383.32898	1197.65125	-972.26318	150.82622	1276.71912	-1192.36584	304.48538	1408.51172	-1272.09253	337.07581	1211.45117	-1291.47302	357.92224	1101.43335	-1319.35962	436.56656	974.59344	-1282.87109	540.72894	895.83368	-1317.41101	486.85593	865.88678	-1325.74768	558.95221	813.31274	-871.02045	276.93066	1398.77332	-792.50537	224.10962	1199.96106	-779.97998	229.17606	1077.74377	-760.68292	234.21783	957.54358	-783.89087	284.81259	812.44757	-749.02594	227.45438	819.68976	-743.23346	256.56564	740.20465	-1139.38416	379.27234	962.82355	-918.60742	377.34595	969.24213	-1111.83044	220.69669	987.36700	-943.47821	225.42426	985.99750	-1190.11548	300.50586	645.75983	-1164.79150	285.24103	482.19919	-1149.63904	210.74983	235.01126	-1102.60632	177.49777	66.17678	-1057.47900	134.52612	55.18642	-1099.73547	320.36649	35.06570	-854.90729	419.98035	651.32208	-875.91119	473.65323	537.35352	-882.74493	392.16232	286.42981	-927.67596	338.76691	109.01327	-976.89026	299.67532	91.83702	-914.02545	476.19113	43.25496	-1022.50647	284.61902	1703.43188																														 
86	0.850	-1068.70361	398.60147	1656.23230	-938.75110	380.63980	1641.75842	-1089.00366	263.01215	1614.62158	-961.10156	246.68994	1604.70715	-1038.22205	244.94737	1449.04321	-1034.78992	208.93126	1119.09973	-1026.24365	352.97150	1370.15930	-1034.33679	393.89359	1196.45862	-972.57959	161.37894	1275.83557	-1192.13000	315.33392	1407.73352	-1272.24182	349.61484	1211.30469	-1291.69153	371.92770	1101.40210	-1319.11816	453.97763	976.84863	-1282.57056	561.06256	902.17670	-1316.47168	507.90918	869.88660	-1324.65771	581.90955	819.89783	-870.89484	287.48706	1397.55200	-793.23340	231.96193	1199.16028	-780.56250	235.83052	1076.86572	-761.09393	238.75119	956.71130	-784.17426	286.74884	810.70135	-749.43445	229.42932	818.98560	-743.50922	257.01813	739.00739	-1139.25073	389.03552	961.30402	-918.75409	387.98676	968.28473	-1111.48450	230.91576	986.15607	-943.12274	235.99539	985.03278	-1189.88416	307.71356	644.19562	-1164.67102	291.48029	481.32971	-1149.85120	213.46251	234.91455	-1102.53479	177.93260	66.51101	-1057.43738	134.82841	55.78226	-1099.83240	320.59500	35.07882	-854.98608	430.50595	650.57056	-876.45135	483.80438	536.39740	-882.97949	413.32581	281.17548	-927.62018	371.75732	100.44839	-977.40192	334.11050	81.55651	-912.92523	512.51038	41.79448	-1021.81500	295.37103	1702.28357																														 
87	0.860	-1067.92480	409.44659	1655.13000	-938.00800	391.30511	1640.38184	-1088.48474	273.90482	1613.48572	-960.61261	257.40814	1603.28333	-1038.04541	255.88753	1447.90002	-1034.76965	219.56450	1117.89844	-1026.02222	363.83359	1368.89807	-1034.40161	404.58508	1195.16931	-972.81805	172.07161	1274.80322	-1191.79614	326.24731	1406.78894	-1272.16992	362.15714	1210.96729	-1291.50916	385.41910	1101.35535	-1318.66589	471.02686	979.02905	-1282.01465	580.82794	908.46997	-1315.34204	528.58844	873.91638	-1323.36047	604.25275	826.49249	-870.73572	298.10733	1396.23364	-793.48303	240.36453	1198.43042	-780.86090	242.57352	1076.19312	-761.48077	243.49922	955.88861	-784.27881	289.00174	809.07697	-749.71509	231.67879	818.31250	-743.63348	257.89481	737.88135	-1139.31604	399.37332	959.77856	-918.70020	398.64764	967.13116	-1111.09094	240.64917	984.97382	-942.67133	246.65976	983.89294	-1189.26306	316.03790	643.49994	-1164.21448	297.39920	480.29803	-1149.96777	216.04343	234.89124	-1102.54163	178.26390	66.85479	-1057.43188	135.09679	56.44640	-1099.72314	320.55386	34.71905	-854.83282	440.63779	649.20190	-876.80280	493.11533	534.68982	-883.06848	434.44803	275.95279	-927.41156	404.91794	92.71416	-977.27869	368.63303	71.96132	-911.94727	548.66565	41.03727	-1021.06628	306.10202	1701.04980																														 
